<svg width="15" height="15" viewBox="0 0 15 15" fill="none" xmlns="http://www.w3.org/2000/svg">
<path fill-rule="evenodd" clip-rule="evenodd" d="M7.49981 6.27546L13.5217 0.253635C13.8598 -0.0845113 14.4081 -0.08455 14.7463 0.253549C15.0845 0.591647 15.0846 1.13985 14.7464 1.478L8.72436 7.5L14.7464 13.522C15.0846 13.8601 15.0845 14.4084 14.7463 14.7465C14.4081 15.0845 13.8598 15.0845 13.5217 14.7464L7.49981 8.72454L1.47831 14.746C1.14016 15.0841 0.591871 15.0842 0.253673 14.7461C-0.084524 14.408 -0.0845627 13.8598 0.253587 13.5216L6.27526 7.5L0.253587 1.47837C-0.0845627 1.14023 -0.084524 0.592023 0.253673 0.253924C0.591871 -0.0841747 1.14016 -0.084136 1.47831 0.254011L7.49981 6.27546Z" fill="#030303"/>
</svg>
