<svg width="24" height="24" viewBox="0 0 24 24" fill="none" xmlns="http://www.w3.org/2000/svg">
<path fill-rule="evenodd" clip-rule="evenodd" d="M15.5346 6.36816H8.40076C7.26209 6.36816 6.33569 7.29456 6.33569 8.43323V15.5671C6.33569 16.7058 7.26209 17.6324 8.40076 17.6324H15.5346C16.6733 17.6324 17.6 16.706 17.6 15.5671V8.43323C17.6 7.29456 16.6736 6.36816 15.5346 6.36816ZM11.9678 15.7083C9.92323 15.7083 8.25977 14.0448 8.25977 12C8.25977 9.95546 9.92323 8.29199 11.9678 8.29199C14.0126 8.29199 15.676 9.95546 15.676 12C15.676 14.0445 14.0123 15.7083 11.9678 15.7083ZM14.9176 8.18153C14.9176 8.66526 15.3112 9.05886 15.7952 9.05886C16.2789 9.05886 16.6725 8.66526 16.6725 8.18153C16.6725 7.6978 16.2789 7.3042 15.7952 7.3042C15.3112 7.3042 14.9176 7.6978 14.9176 8.18153Z" fill="white"/>
<path d="M11.9677 9.85889C10.7875 9.85889 9.82642 10.8194 9.82642 11.9997C9.82642 13.1805 10.7875 14.1413 11.9677 14.1413C13.1485 14.1413 14.1088 13.1805 14.1088 11.9997C14.1088 10.8197 13.1483 9.85889 11.9677 9.85889Z" fill="white"/>
<path fill-rule="evenodd" clip-rule="evenodd" d="M0 11.9677C0 5.3584 5.3584 0 11.9677 0C18.5771 0 23.9355 5.3584 23.9355 11.9677C23.9355 18.5771 18.5771 23.9355 11.9677 23.9355C5.3584 23.9355 0 18.5771 0 11.9677ZM15.5347 19.1991C17.5376 19.1991 19.1667 17.5701 19.1667 15.5671V8.43327C19.1667 6.4306 17.5376 4.80127 15.5347 4.80127H8.4008C6.39813 4.80127 4.7688 6.4306 4.7688 8.43327V15.5671C4.7688 17.5701 6.39813 19.1991 8.4008 19.1991H15.5347Z" fill="white"/>
</svg>
