<svg width="24" height="24" viewBox="0 0 24 24" fill="none" xmlns="http://www.w3.org/2000/svg">
<path fill-rule="evenodd" clip-rule="evenodd" d="M0 11.9694C0 5.35886 5.35886 0 11.9694 0C18.5799 0 23.9388 5.35886 23.9388 11.9694C23.9388 18.5799 18.5799 23.9388 11.9694 23.9388C5.35886 23.9388 0 18.5799 0 11.9694ZM6.67529 17.4516H9.15519V9.47266H6.67529V17.4516ZM7.91584 8.38187C7.12098 8.38187 6.47754 7.73753 6.47754 6.94375C6.47772 6.15069 7.12098 5.50635 7.91584 5.50635C8.70854 5.50635 9.35288 6.15069 9.35288 6.94375C9.35288 7.73771 8.70836 8.38187 7.91584 8.38187ZM15.9653 17.4515H18.4432V13.075C18.4432 10.9267 17.9797 9.27417 15.4686 9.27417C14.2621 9.27417 13.4535 9.93547 13.1223 10.5628H13.0889V9.47253H10.7104V17.4513H13.1882V13.5042C13.1882 12.4636 13.3865 11.4557 14.6763 11.4557C15.9482 11.4557 15.9653 12.6459 15.9653 13.5712V17.4515Z" fill="white"/>
</svg>
