<svg width="13" height="15" viewBox="0 0 13 15" fill="none" xmlns="http://www.w3.org/2000/svg">
<path fill-rule="evenodd" clip-rule="evenodd" d="M12.2558 8.63328H10.3413C10.1777 8.63328 10.0383 8.85166 10.0255 9.01401C9.8791 10.8826 8.31161 12.4056 6.40605 12.4056C4.28848 12.4056 2.36 10.7362 2.5631 8.57789C2.73691 6.73408 4.03509 5.50722 5.9451 5.45883V7.93548L10.9468 4.18676C11.0652 4.06388 10.9939 3.86587 10.8761 3.74236L5.9451 0V2.65301C2.76174 2.7326 0.129102 5.29329 0.00431437 8.58425C-0.128113 12.0987 2.80631 15 6.29209 15C9.58814 15 12.3468 12.3101 12.5175 9.05539C12.527 8.87648 12.4353 8.63328 12.2558 8.63328Z" fill="#E4281A"/>
</svg>
