<svg viewBox="0 0 26 26" fill="none" xmlns="http://www.w3.org/2000/svg"><path opacity=".3" fill-rule="evenodd" clip-rule="evenodd" d="m4.476 4.367 7.965-1.494a2 2 0 0 1 .737 0l7.965 1.494v8.486a11 11 0 0 1-5.17 9.328l-2.633 1.646a1 1 0 0 1-1.06 0l-2.634-1.646a11 11 0 0 1-5.17-9.328V4.367Z" fill="#fff"/><path fill-rule="evenodd" clip-rule="evenodd" d="M11.95 15.565c-.25 0-.499-.1-.699-.3l-1.996-1.997c-.4-.399-.4-.998 0-1.397.4-.4 1.048-.4 1.397 0l1.298 1.298 3.294-3.295c.4-.399.999-.399 1.398 0 .4.4.4.999 0 1.398l-3.993 3.993c-.2.2-.45.3-.699.3Z" fill="#fff"/></svg>