<svg viewBox="0 0 19 33" xmlns="http://www.w3.org/2000/svg">
<path d="M17.4576 31.193C17.8768 30.7796 17.8768 30.1077 17.4576 29.6942L4.06854 16.5145L17.4576 3.30898C17.8768 2.8955 17.8768 2.22359 17.4576 1.81011C17.0383 1.39663 16.3571 1.39663 15.9379 1.81011L1.81521 15.7392C1.60559 15.946 1.50079 16.2044 1.50079 16.4887C1.50079 16.7471 1.60559 17.0314 1.81521 17.2381L15.9379 31.1672C16.3571 31.6065 17.0383 31.6065 17.4576 31.193Z" />
<path fill-rule="evenodd" clip-rule="evenodd" d="M18.1598 1.09814C18.976 1.90323 18.976 3.21585 18.1598 4.02094L5.49332 16.5138L18.1591 28.9815C18.9753 29.7866 18.976 31.0999 18.1598 31.905C17.3514 32.7023 16.037 32.7058 15.2266 31.8702L1.11299 17.9501C0.701824 17.5445 0.500786 16.9988 0.500786 16.4887C0.500786 15.9396 0.71084 15.4239 1.11299 15.0273L15.2357 1.09814C16.0443 0.300619 17.3512 0.300619 18.1598 1.09814ZM16.7553 2.59701C16.7775 2.57514 16.7775 2.54395 16.7553 2.52208C16.7422 2.50907 16.7234 2.5 16.6977 2.5C16.6721 2.5 16.6533 2.50907 16.6401 2.52208L2.51742 16.4512C2.50966 16.4588 2.50585 16.464 2.50432 16.4662L2.5029 16.4685L2.50208 16.4714C2.50164 16.4737 2.50079 16.4792 2.50079 16.4887C2.50079 16.4869 2.5006 16.4872 2.50079 16.4887C2.50088 16.4894 2.50113 16.4902 2.50142 16.4916C2.50227 16.4959 2.50377 16.5012 2.50608 16.5069C2.51099 16.519 2.51625 16.525 2.51742 16.5261L16.6509 30.4659L16.6613 30.4768C16.6718 30.4878 16.6803 30.4927 16.6864 30.4953C16.6932 30.4982 16.701 30.4999 16.7094 30.5C16.7264 30.5002 16.7419 30.4944 16.7553 30.4811C16.7775 30.4592 16.7775 30.428 16.7554 30.4062C16.7554 30.4062 16.7554 30.4062 16.7554 30.4062L2.64376 16.5152L16.7553 2.59701Z"/>
</svg>
