<svg viewBox="0 0 19 33" xmlns="http://www.w3.org/2000/svg">
<path d="M1.54293 1.80683C1.12371 2.22031 1.12371 2.89222 1.54293 3.3057L14.9319 16.4854L1.54293 29.6909C1.12371 30.1044 1.12371 30.7763 1.54293 31.1898C1.96216 31.6032 2.6434 31.6032 3.06263 31.1898L17.1853 17.2607C17.3949 17.0539 17.4997 16.7955 17.4997 16.5112C17.4997 16.2528 17.3949 15.9685 17.1853 15.7618L3.06263 1.83267C2.6434 1.39335 1.96216 1.39335 1.54293 1.80683Z"/>
<path fill-rule="evenodd" clip-rule="evenodd" d="M0.840723 31.9017C0.0244464 31.0966 0.0244464 29.784 0.840723 28.9789L13.5072 16.4861L0.841421 4.01835C0.025144 3.21326 0.0244464 1.89995 0.840723 1.09486C1.64907 0.29759 2.96345 0.29409 3.77392 1.12967L17.8875 15.0498C18.2987 15.4554 18.4997 16.0011 18.4997 16.5112C18.4997 17.0603 18.2896 17.576 17.8875 17.9726L3.76484 31.9017C2.95623 32.6993 1.64933 32.6993 0.840723 31.9017ZM2.24515 30.4029C2.22297 30.4247 2.22297 30.4559 2.24515 30.4778C2.25834 30.4908 2.27714 30.4999 2.30278 30.4999C2.32842 30.4999 2.34722 30.4908 2.36042 30.4778L16.4831 16.5487C16.4908 16.541 16.4946 16.5359 16.4962 16.5336L16.4976 16.5314L16.4984 16.5285C16.4988 16.5262 16.4997 16.5207 16.4997 16.5112C16.4997 16.5129 16.4999 16.5126 16.4997 16.5112C16.4996 16.5105 16.4994 16.5097 16.4991 16.5082C16.4982 16.504 16.4967 16.4986 16.4944 16.493C16.4895 16.4808 16.4842 16.4749 16.4831 16.4738L2.34963 2.534L2.33917 2.52304C2.32868 2.51205 2.32015 2.50721 2.3141 2.50462C2.3073 2.50171 2.29954 2.49998 2.29104 2.49988C2.27409 2.49968 2.25862 2.50551 2.24515 2.5188C2.22298 2.54066 2.22297 2.57184 2.24512 2.5937C2.24513 2.59371 2.24511 2.5937 2.24512 2.5937L16.3567 16.4847L2.24515 30.4029Z"/>
</svg>
