<svg width="24" height="24" viewBox="0 0 24 24" fill="none" xmlns="http://www.w3.org/2000/svg">
<path fill-rule="evenodd" clip-rule="evenodd" d="M23.8292 11.9146C23.8292 18.4949 18.4949 23.8292 11.9146 23.8292C5.33436 23.8292 0 18.4949 0 11.9146C0 5.33436 5.33436 0 11.9146 0C18.4949 0 23.8292 5.33436 23.8292 11.9146ZM18.2455 8.98363C18.8215 8.91524 19.3708 8.76211 19.8813 8.5357C19.4997 9.10682 19.0169 9.60826 18.46 10.0097C18.4656 10.1316 18.4683 10.2546 18.4683 10.378C18.4683 14.1417 15.6036 18.4813 10.3652 18.4813C8.75703 18.4813 7.25968 18.01 6 17.2016C6.22237 17.2282 6.44963 17.2415 6.67901 17.2415C8.01366 17.2415 9.24149 16.7864 10.2164 16.0224C8.96984 15.9993 7.9183 15.1758 7.55596 14.0447C7.7297 14.0778 7.90789 14.0954 8.09182 14.0954C8.35115 14.0954 8.60326 14.0608 8.84198 13.9954C7.5394 13.7339 6.55731 12.583 6.55731 11.2031C6.55731 11.1912 6.55731 11.1791 6.55752 11.167C6.94131 11.3809 7.38074 11.5089 7.84736 11.5236C7.08361 11.013 6.58046 10.1409 6.58046 9.15311C6.58046 8.63128 6.72106 8.14172 6.96616 7.72119C8.3709 9.44473 10.4695 10.5785 12.8364 10.6972C12.7875 10.4886 12.7623 10.2713 12.7623 10.0481C12.7623 8.47559 14.0377 7.2002 15.6102 7.2002C16.4298 7.2002 17.17 7.54597 17.6895 8.09924C18.3379 7.97159 18.9477 7.73478 19.498 7.40834C19.285 8.07375 18.8336 8.63128 18.2455 8.98363Z" fill="white"/>
</svg>
