<svg width="24" height="24" viewBox="0 0 24 24" fill="none" xmlns="http://www.w3.org/2000/svg">
<path fill-rule="evenodd" clip-rule="evenodd" d="M0 11.9694C0 5.35886 5.3591 0 11.9694 0C18.5797 0 23.9388 5.35886 23.9388 11.9694C23.9388 18.5799 18.5797 23.9388 11.9694 23.9388C5.3591 23.9388 0 18.5799 0 11.9694ZM15.7409 15.1028C17.516 12.8178 18.4349 11.0174 18.4946 9.70304C18.5745 7.94334 17.9208 7.04319 16.5331 7.0024C14.6616 6.94267 13.3937 7.99916 12.7303 10.173C13.0727 10.0253 13.4062 9.9515 13.7298 9.9515C14.4162 9.9515 14.7193 10.3377 14.6387 11.1089C14.5979 11.5748 14.295 12.2548 13.7298 13.1481C13.1642 14.0404 12.7391 14.4876 12.4563 14.4876C12.0929 14.4876 11.7593 13.7998 11.4566 12.4228C11.3547 12.0192 11.1734 10.9869 10.9111 9.32713C10.6683 7.78973 10.0215 7.07071 8.97085 7.17162C8.52565 7.2126 7.85893 7.61681 6.96991 8.38443C6.32329 8.97113 5.66574 9.55724 5 10.1422L5.63471 10.9609C6.23995 10.5374 6.594 10.3245 6.69471 10.3245C7.15845 10.3245 7.59173 11.0521 7.99516 12.5054C8.21007 13.2943 8.42518 14.0829 8.6403 14.8716C8.78856 15.4151 8.93682 15.9587 9.08502 16.5024C9.62937 17.9564 10.2951 18.6831 11.0815 18.6831C12.3526 18.6831 13.9059 17.4896 15.7409 15.1028Z" fill="white"/>
</svg>
