<svg width="24" height="24" viewBox="0 0 24 24" fill="none" xmlns="http://www.w3.org/2000/svg">
<path d="M10.1602 14.1454C11.6499 13.3729 13.1267 12.6075 14.6171 11.8345C13.1222 11.0545 11.6459 10.2846 10.1602 9.50928C10.1602 11.06 10.1602 12.5949 10.1602 14.1454Z" fill="white"/>
<path fill-rule="evenodd" clip-rule="evenodd" d="M0 11.9694C0 5.35886 5.3591 0 11.9694 0C18.5797 0 23.9388 5.35886 23.9388 11.9694C23.9388 18.5799 18.5797 23.9388 11.9694 23.9388C5.3591 23.9388 0 18.5799 0 11.9694ZM17.2184 16.6605C17.9523 16.5787 18.5621 16.0288 18.734 15.2833C18.9784 14.2215 18.979 13.0624 18.979 11.9694V11.9426C18.979 10.8574 18.979 9.70857 18.7366 8.65546C18.5652 7.90976 17.9554 7.35988 17.221 7.27781C15.483 7.08361 13.7235 7.0826 11.9719 7.08361C10.2199 7.0826 8.46031 7.08361 6.7217 7.27781C5.98777 7.35988 5.37837 7.90996 5.20693 8.65546C4.96256 9.71704 4.95972 10.8763 4.95972 11.9694C4.95972 13.0624 4.95972 14.2213 5.20409 15.2833C5.37553 16.0288 5.98493 16.5787 6.71885 16.6605C8.45747 16.8549 10.217 16.856 11.969 16.8549C13.7211 16.856 15.4802 16.8549 17.2184 16.6605Z" fill="white"/>
</svg>
