<svg viewBox="0 0 153 26" fill="none" xmlns="http://www.w3.org/2000/svg"><path fill-rule="evenodd" clip-rule="evenodd" d="M31.718 12.548c0-1.031.393-2 1.109-2.73a3.722 3.722 0 0 1 2.676-1.13 3.724 3.724 0 0 1 2.941 1.431l-6.712 2.714a3.843 3.843 0 0 1-.014-.285Zm6.469 2.723a3.724 3.724 0 0 1-2.674 1.137 3.723 3.723 0 0 1-2.945-1.423l4.041-1.647 5.255-2.142a6.62 6.62 0 0 0-1.78-3.347 6.39 6.39 0 0 0-4.599-1.928 6.389 6.389 0 0 0-4.588 1.954 6.65 6.65 0 0 0-1.89 4.691 6.65 6.65 0 0 0 1.915 4.68 6.388 6.388 0 0 0 4.599 1.928 6.392 6.392 0 0 0 4.588-1.953 6.61 6.61 0 0 0 1.387-2.11l-2.501-1.07c-.189.46-.461.873-.808 1.23ZM56.217 19.175h-2.745v-6.627c0-2.129-1.72-3.86-3.833-3.86-2.114 0-3.833 1.731-3.833 3.86v6.627H43.06v-6.627c0-3.654 2.951-6.626 6.579-6.626 3.627 0 6.578 2.972 6.578 6.626v6.627Z" fill="#fff"/><path fill-rule="evenodd" clip-rule="evenodd" d="M88.662 18.874a1.35 1.35 0 0 1-1.346-1.356 1.35 1.35 0 0 1 1.346-1.355 1.35 1.35 0 0 1 1.345 1.355 1.35 1.35 0 0 1-1.345 1.356Z" fill="#E4281A"/><mask id="a" style="mask-type:alpha" maskUnits="userSpaceOnUse" x="0" y="5" width="14" height="15"><path fill-rule="evenodd" clip-rule="evenodd" d="M0 5.793h13.044v13.21H0V5.792Z" fill="#fff"/></mask><g mask="url(#a)"><path fill-rule="evenodd" clip-rule="evenodd" d="M6.522 16.246c-2.095 0-3.8-1.727-3.8-3.848 0-2.122 1.705-3.848 3.8-3.848 2.095 0 3.8 1.725 3.8 3.847v.001c0 2.122-1.705 3.848-3.8 3.848Zm6.522-3.848V5.793h-2.722v1.241a6.431 6.431 0 0 0-3.8-1.241C2.926 5.793 0 8.756 0 12.398c0 3.642 2.926 6.604 6.522 6.604a6.43 6.43 0 0 0 3.8-1.241v1.241h2.722v-6.604Z" fill="#fff"/></g><path fill-rule="evenodd" clip-rule="evenodd" d="M106.455 19.175h1.495V5.922h-1.495v13.253ZM116.323 17.8a5.215 5.215 0 0 1-5.206-5.213 5.215 5.215 0 0 1 5.206-5.213 5.215 5.215 0 0 1 5.205 5.213 5.215 5.215 0 0 1-5.205 5.213ZM121.528.5v8.066A6.566 6.566 0 0 0 116.323 6c-3.628 0-6.579 2.955-6.579 6.588s2.951 6.588 6.579 6.588a6.566 6.566 0 0 0 5.205-2.567v2.567h1.373V.5h-1.373ZM145.628 7.304c-2.871 0-5.206 2.353-5.206 5.244 0 2.891 2.335 5.244 5.206 5.244 2.87 0 5.205-2.353 5.205-5.244 0-2.891-2.335-5.244-5.205-5.244Zm-.001 11.87c-3.627 0-6.578-2.972-6.578-6.626 0-3.654 2.951-6.627 6.578-6.627 3.628 0 6.579 2.973 6.579 6.627s-2.951 6.626-6.579 6.626ZM97.334 17.83 92.112 5.922h-1.506l5.81 13.253h1.835l5.811-13.253h-1.507L97.334 17.83ZM63.992 16.425a3.84 3.84 0 0 1-3.833-3.838 3.84 3.84 0 0 1 3.833-3.838 3.84 3.84 0 0 1 3.833 3.838 3.84 3.84 0 0 1-3.833 3.838ZM67.825.5V7.238a6.536 6.536 0 0 0-3.833-1.239c-3.627 0-6.579 2.955-6.579 6.588s2.952 6.588 6.579 6.588c1.43 0 2.753-.46 3.833-1.239v1.239h2.746V.5h-2.746ZM78.346 16.409c-2.114 0-3.833-1.732-3.833-3.861 0-2.129 1.72-3.86 3.833-3.86 2.113 0 3.832 1.731 3.832 3.86 0 2.129-1.719 3.86-3.832 3.86ZM82.179 5.92v1.246a6.51 6.51 0 0 0-3.833-1.246c-3.627 0-6.579 2.973-6.579 6.627s2.952 6.626 6.579 6.626a6.51 6.51 0 0 0 3.833-1.245v1.245h2.746V5.921h-2.746ZM23.642 15.136a3.824 3.824 0 0 1-2.71 1.114 3.824 3.824 0 0 1-2.71-1.114 3.763 3.763 0 0 1-1.123-2.688c0-1.016.398-1.97 1.123-2.689a3.821 3.821 0 0 1 2.71-1.113c1.024 0 1.986.395 2.71 1.113a3.763 3.763 0 0 1 1.122 2.688v.001c0 1.016-.398 1.97-1.122 2.688Zm3.869-2.687V5.92h-2.746v1.223a6.565 6.565 0 0 0-3.833-1.223 6.56 6.56 0 0 0-4.652 1.912 6.458 6.458 0 0 0-1.927 4.614c0 1.744.685 3.383 1.927 4.615a6.561 6.561 0 0 0 4.652 1.912 6.563 6.563 0 0 0 3.833-1.223v1.223c0 1.015-.399 1.97-1.123 2.688a3.824 3.824 0 0 1-2.71 1.114 3.824 3.824 0 0 1-2.71-1.114l-1.942 1.926a6.561 6.561 0 0 0 4.652 1.912 6.562 6.562 0 0 0 4.652-1.912 6.456 6.456 0 0 0 1.927-4.614v-6.525ZM126.222 13.819a5.24 5.24 0 0 1 1.359-4.979 5.12 5.12 0 0 1 3.665-1.536 5.12 5.12 0 0 1 3.665 1.536c.342.347.627.735.857 1.15l-9.546 3.829Zm8.688 2.437a5.118 5.118 0 0 1-3.665 1.535 5.12 5.12 0 0 1-3.665-1.535 5.28 5.28 0 0 1-.858-1.15l9.547-3.829 1.285-.515a6.6 6.6 0 0 0-1.677-2.9 6.47 6.47 0 0 0-4.632-1.94c-1.749 0-3.394.689-4.631 1.94a6.622 6.622 0 0 0-1.918 4.686c0 1.77.681 3.434 1.918 4.685a6.468 6.468 0 0 0 4.631 1.941c1.75 0 3.395-.689 4.632-1.94a6.603 6.603 0 0 0 1.403-2.106l-1.259-.54a5.23 5.23 0 0 1-1.111 1.668Z" fill="#fff"/></svg>