 <svg width="29" height="29" viewBox="0 0 29 29" fill="none" xmlns="http://www.w3.org/2000/svg">
<path d="M25.1221 2.96717C24.0151 1.86013 22.2204 1.85944 21.1125 2.96563L2.4902 21.5593C1.70813 22.3402 1.70764 23.6074 2.48911 24.3889L3.70041 25.6002C4.48189 26.3816 5.74905 26.3811 6.52993 25.5991L25.1236 6.97676C26.2298 5.86886 26.2291 4.07421 25.1221 2.96717Z" fill="black"/>
<path opacity="0.3" fill-rule="evenodd" clip-rule="evenodd" d="M5.15208 10.2777C7.98734 10.2777 10.2848 7.98088 10.2848 5.14239C10.2848 2.30391 7.98734 0.00708008 5.15208 0.00708008C2.31683 0.00708008 0.0141602 2.30391 0.0141602 5.14239C0.0141602 7.98088 2.31683 10.2777 5.15208 10.2777ZM22.9383 28.0634C25.7736 28.0634 28.071 25.7665 28.071 22.928C28.071 20.0843 25.7736 17.7927 22.9383 17.7927C20.1031 17.7927 17.8004 20.0843 17.8004 22.928C17.8004 25.7665 20.1031 28.0634 22.9383 28.0634Z" fill="black"/>
</svg>
