<svg width="40" height="27" viewBox="0 0 40 27" fill="none" xmlns="http://www.w3.org/2000/svg">
<path opacity="0.3" fill-rule="evenodd" clip-rule="evenodd" d="M21.7958 5.26761C21.7958 6.23606 21.0107 7.02114 20.0423 7.02114C19.0738 7.02114 18.2888 6.23606 18.2888 5.26761C18.2888 4.30432 19.0655 3.52245 20.0268 3.51416C12.4479 3.52044 7.15375 8.15717 4.34277 17.0117L7.68542 18.0729C10.0682 10.5673 14.1208 7.0212 20.0423 7.0212C25.9637 7.0212 30.0164 10.5673 32.3991 18.0729L35.7418 17.0117C32.9308 8.15719 27.6366 3.52046 20.0577 3.51416C21.0191 3.52245 21.7958 4.30433 21.7958 5.26761Z" fill="black"/>
<path fill-rule="evenodd" clip-rule="evenodd" d="M20.0422 10.5282C22.3326 10.5282 24.2812 9.06435 25.0034 7.02116H31.0325C31.6388 8.06942 32.7722 8.77469 34.0703 8.77469C36.0072 8.77469 37.5774 7.20453 37.5774 5.26764C37.5774 3.33076 36.0072 1.7606 34.0703 1.7606C32.7722 1.7606 31.6388 2.46587 31.0325 3.51412H25.0034C24.2812 1.47093 22.3326 0.00708008 20.0422 0.00708008C17.7517 0.00708008 15.8031 1.47093 15.0809 3.51412H9.05184C8.44546 2.46587 7.31208 1.7606 6.01398 1.7606C4.0771 1.7606 2.50694 3.33076 2.50694 5.26764C2.50694 7.20453 4.0771 8.77469 6.01398 8.77469C7.31208 8.77469 8.44546 8.06942 9.05184 7.02116H15.0809C15.8031 9.06435 17.7517 10.5282 20.0422 10.5282ZM21.7957 5.26762C21.7957 6.23606 21.0106 7.02114 20.0421 7.02114C19.0737 7.02114 18.2886 6.23606 18.2886 5.26762C18.2886 4.29918 19.0737 3.5141 20.0421 3.5141C21.0106 3.5141 21.7957 4.29918 21.7957 5.26762ZM6.01398 26.3099C8.91931 26.3099 11.2745 23.9547 11.2745 21.0493C11.2745 18.144 8.91931 15.7888 6.01398 15.7888C3.10865 15.7888 0.753418 18.144 0.753418 21.0493C0.753418 23.9547 3.10865 26.3099 6.01398 26.3099ZM7.7675 21.0493C7.7675 22.0178 6.98242 22.8029 6.01398 22.8029C5.04554 22.8029 4.26046 22.0178 4.26046 21.0493C4.26046 20.0809 5.04554 19.2958 6.01398 19.2958C6.98242 19.2958 7.7675 20.0809 7.7675 21.0493ZM34.0703 26.3099C36.9756 26.3099 39.3309 23.9547 39.3309 21.0493C39.3309 18.144 36.9756 15.7888 34.0703 15.7888C31.165 15.7888 28.8098 18.144 28.8098 21.0493C28.8098 23.9547 31.165 26.3099 34.0703 26.3099ZM35.8238 21.0493C35.8238 22.0178 35.0388 22.8029 34.0703 22.8029C33.1019 22.8029 32.3168 22.0178 32.3168 21.0493C32.3168 20.0809 33.1019 19.2958 34.0703 19.2958C35.0388 19.2958 35.8238 20.0809 35.8238 21.0493Z" fill="black"/>
</svg>
