<svg width="34" height="32" viewBox="0 0 34 32" fill="none" xmlns="http://www.w3.org/2000/svg">
  <path opacity="0.3" fill-rule="evenodd" clip-rule="evenodd" d="M31.8241 16.0354C31.8241 24.7513 24.7584 31.817 16.0424 31.817C7.32645 31.817 0.260742 24.7513 0.260742 16.0354C0.260742 7.31937 7.32645 0.253662 16.0424 0.253662C24.7584 0.253662 31.8241 7.31937 31.8241 16.0354ZM17.402 16.5489C17.402 17.5173 16.617 18.3024 15.6485 18.3024C14.6801 18.3024 13.895 17.5173 13.895 16.5489C13.895 15.5804 14.6801 14.7954 15.6485 14.7954C16.617 14.7954 17.402 15.5804 17.402 16.5489ZM14.6807 10.954C16.5516 10.4527 17.6619 8.52962 17.1606 6.65873C16.6593 4.78785 14.7362 3.67758 12.8653 4.17888C10.9945 4.68018 9.88418 6.60322 10.3855 8.47411C10.8868 10.345 12.8098 11.4553 14.6807 10.954ZM21.6993 23.5965C22.2007 25.4674 21.0904 27.3905 19.2195 27.8918C17.3486 28.3931 15.4256 27.2828 14.9243 25.4119C14.423 23.541 15.5332 21.618 17.4041 21.1167C19.275 20.6154 21.198 21.7256 21.6993 23.5965ZM8.48089 21.6921C10.3518 21.1908 11.462 19.2678 10.9607 17.3969C10.4594 15.526 8.5364 14.4158 6.66551 14.9171C4.79462 15.4184 3.68436 17.3414 4.18566 19.2123C4.68696 21.0832 6.61 22.1934 8.48089 21.6921ZM27.8992 12.8586C28.4005 14.7295 27.2902 16.6525 25.4193 17.1538C23.5484 17.6551 21.6254 16.5448 21.1241 14.6739C20.6228 12.8031 21.7331 10.88 23.6039 10.3787C25.4748 9.87741 27.3979 10.9877 27.8992 12.8586Z" fill="black"/>
  <path fill-rule="evenodd" clip-rule="evenodd" d="M25.9625 28.3099C23.254 30.5016 19.8056 31.815 16.0506 31.817H32.5774C33.1297 31.817 33.5774 31.3693 33.5774 30.817V29.3099C33.5774 28.7577 33.1297 28.3099 32.5774 28.3099H25.9625ZM16.0339 31.817C15.6998 31.8168 15.3682 31.8063 15.0393 31.7856C15.119 31.8061 15.2026 31.817 15.2887 31.817H16.0339Z" fill="black"/>
</svg>
