<svg width="29" height="35" viewBox="0 0 29 35" fill="none" xmlns="http://www.w3.org/2000/svg">
<path opacity="0.3" fill-rule="evenodd" clip-rule="evenodd" d="M14.0282 34.3098C6.28062 34.3098 0 28.0292 0 20.2816C0 12.5341 6.28062 6.25348 14.0282 6.25348C21.7757 6.25348 28.0563 12.5341 28.0563 20.2816C28.0563 28.0292 21.7757 34.3098 14.0282 34.3098Z" fill="black"/>
<path fill-rule="evenodd" clip-rule="evenodd" d="M15.7817 6.36201V4.49996H17.5352C18.5036 4.49996 19.2887 3.71488 19.2887 2.74644C19.2887 1.778 18.5036 0.99292 17.5352 0.99292H10.5211C9.55266 0.99292 8.76758 1.778 8.76758 2.74644C8.76758 3.71488 9.55266 4.49996 10.5211 4.49996H12.2746V6.362C12.8491 6.29037 13.4343 6.25348 14.0281 6.25348C14.622 6.25348 15.2072 6.29038 15.7817 6.36201Z" fill="black"/>
<path fill-rule="evenodd" clip-rule="evenodd" d="M24.8424 11.3455L26.7476 9.44032C27.1381 9.04979 27.1381 8.41663 26.7476 8.0261L25.682 6.96046C25.2914 6.56994 24.6583 6.56994 24.2678 6.96047L22.2871 8.94111C23.236 9.63336 24.0948 10.4418 24.8424 11.3455Z" fill="black"/>
<path fill-rule="evenodd" clip-rule="evenodd" d="M13.1162 11.099C13.1362 10.8385 13.3534 10.6373 13.6147 10.6373H14.4422C14.7035 10.6373 14.9207 10.8385 14.9407 11.099L15.7406 21.4968C15.7629 21.7872 15.5333 22.0352 15.242 22.0352H12.8149C12.5236 22.0352 12.294 21.7872 12.3163 21.4968L13.1162 11.099Z" fill="black"/>
</svg>
