<svg width="29" height="37" viewBox="0 0 29 37" fill="none" xmlns="http://www.w3.org/2000/svg">
<path opacity="0.3" fill-rule="evenodd" clip-rule="evenodd" d="M0 3.56209L13.6596 1.00091C13.9032 0.955239 14.1532 0.955239 14.3967 1.00091L28.0563 3.56209V22.0147C28.0563 25.8074 26.1025 29.3325 22.8863 31.3426L14.5582 36.5477C14.2339 36.7504 13.8224 36.7504 13.4982 36.5477L5.17001 31.3426C1.95381 29.3325 0 25.8073 0 22.0147L0 3.56209Z" fill="black"/>
<path fill-rule="evenodd" clip-rule="evenodd" d="M12.5809 22.4123C12.1608 22.4123 11.7407 22.2443 11.4046 21.9082L8.04369 18.5473C7.37151 17.8751 7.37151 16.8668 8.04369 16.1946C8.71587 15.5225 9.80817 15.5225 10.3963 16.1946L12.5809 18.3792L18.1264 12.8337C18.7986 12.1615 19.8069 12.1615 20.4791 12.8337C21.1513 13.5059 21.1513 14.5142 20.4791 15.1864L13.7572 21.9082C13.4212 22.2443 13.001 22.4123 12.5809 22.4123Z" fill="black"/>
</svg>
