<svg width="40" height="30" viewBox="0 0 40 30" fill="none" xmlns="http://www.w3.org/2000/svg">
<path fill-rule="evenodd" clip-rule="evenodd" d="M36.8422 29.474C35.0981 29.474 33.6843 28.0602 33.6843 26.3161C33.6843 24.572 35.0981 23.1582 36.8422 23.1582C38.5864 23.1582 40.0001 24.572 40.0001 26.3161C40.0001 28.0602 38.5864 29.474 36.8422 29.474Z" fill="#E4281A"/>
<path fill-rule="evenodd" clip-rule="evenodd" d="M14.2105 23.158C9.85727 23.158 6.31578 19.3804 6.31578 14.737C6.31578 10.0935 9.85727 6.31592 14.2105 6.31592C18.5638 6.31592 22.1053 10.0935 22.1053 14.737C22.1053 19.3804 18.5638 23.158 14.2105 23.158ZM22.2632 0V2.60351C19.9724 0.963298 17.1985 0 14.2105 0C6.37484 0 0 6.61095 0 14.7368C0 22.8627 6.37484 29.4737 14.2105 29.4737C17.1985 29.4737 19.9724 28.5104 22.2632 26.8702V29.4737H28.4211V0H22.2632Z" fill="#FEFEFE"/>
</svg>
