<svg width="141" height="23" viewBox="0 0 141 23" fill="none" xmlns="http://www.w3.org/2000/svg">
<path fill-rule="evenodd" clip-rule="evenodd" d="M29.1803 11.0847C29.1803 10.136 29.5424 9.24409 30.2004 8.57296C30.8578 7.90225 31.7322 7.53286 32.6625 7.53286C33.5928 7.53286 34.4672 7.90225 35.125 8.57296C35.2117 8.66138 35.2926 8.75426 35.3689 8.84989L29.193 11.3467C29.1865 11.2598 29.1803 11.1729 29.1803 11.0847ZM35.1319 13.5891L35.1317 13.5889C34.4758 14.2615 33.6022 14.6334 32.6721 14.636C31.742 14.6387 30.8665 14.2717 30.2069 13.6029C30.12 13.5147 30.0389 13.422 29.9624 13.3264L33.6804 11.8111L38.5151 9.84073C38.2806 8.68083 37.7193 7.61593 36.8771 6.76159C35.7452 5.61314 34.2427 4.98357 32.6461 4.98781C31.0493 4.99248 29.5501 5.63053 28.4248 6.78555C27.2989 7.94015 26.6812 9.47262 26.6856 11.1009C26.6899 12.7292 27.3159 14.2583 28.4481 15.4068C29.5801 16.5552 31.0825 17.1852 32.6789 17.1805C34.2754 17.1761 35.7745 16.5378 36.9004 15.3832V15.383C37.4476 14.8221 37.8765 14.1693 38.1759 13.4421L35.8753 12.4572C35.7015 12.8806 35.4512 13.2615 35.1319 13.5891Z" fill="black"/>
<path fill-rule="evenodd" clip-rule="evenodd" d="M51.7199 17.1808H49.1937V11.0844C49.1937 9.12595 47.6119 7.53262 45.6676 7.53262C43.7233 7.53262 42.1414 9.12595 42.1414 11.0844V17.1808H39.6152V11.0844C39.6152 7.72282 42.3303 4.98804 45.6676 4.98804C49.0049 4.98804 51.7199 7.72282 51.7199 11.0844V17.1808Z" fill="black"/>
<path fill-rule="evenodd" clip-rule="evenodd" d="M81.569 16.9036C80.8855 16.9036 80.3311 16.3452 80.3311 15.6567C80.3311 14.9681 80.8855 14.4097 81.569 14.4097C82.2528 14.4097 82.807 14.9681 82.807 15.6567C82.807 16.3452 82.2528 16.9036 81.569 16.9036Z" fill="#E4281A"/>
<mask id="mask0" style="mask-type:alpha" maskUnits="userSpaceOnUse" x="0" y="4" width="13" height="14">
<path fill-rule="evenodd" clip-rule="evenodd" d="M0 4.86938H12.0003V17.0222H0V4.86938Z" fill="white"/>
</mask>
<g mask="url(#mask0)">
<path fill-rule="evenodd" clip-rule="evenodd" d="M6.00015 14.4861C4.07258 14.4861 2.50439 12.898 2.50439 10.9459C2.50439 8.99387 4.07258 7.40576 6.00015 7.40576C7.92751 7.40576 9.4957 8.99366 9.4959 10.9455V10.9464C9.4957 12.8982 7.92751 14.4861 6.00015 14.4861ZM12.0004 10.9458V10.9448V4.86938H9.49593V6.01175C8.51065 5.29399 7.30394 4.86938 6.00018 4.86938C2.69163 4.86938 0 7.59522 0 10.9458C0 14.2966 2.69163 17.0222 6.00018 17.0222C7.30394 17.0222 8.51065 16.5976 9.49593 15.8799V17.0222H12.0004V10.9469V10.9458Z" fill="black"/>
</g>
<path fill-rule="evenodd" clip-rule="evenodd" d="M97.938 17.1806H99.3135V4.98779H97.938V17.1806Z" fill="black"/>
<path fill-rule="evenodd" clip-rule="evenodd" d="M107.017 15.9157C104.376 15.9157 102.228 13.7642 102.228 11.1198C102.228 8.47546 104.376 6.32397 107.017 6.32397C109.658 6.32397 111.806 8.47546 111.806 11.1198C111.806 13.7642 109.658 15.9157 107.017 15.9157ZM111.806 0V7.42081C110.698 5.98606 108.964 5.05935 107.017 5.05935C103.679 5.05935 100.964 7.77812 100.964 11.12C100.964 14.4622 103.679 17.1807 107.017 17.1807C108.964 17.1807 110.698 16.254 111.806 14.8193V17.1807H113.069V0H111.806Z" fill="black"/>
<path fill-rule="evenodd" clip-rule="evenodd" d="M133.977 6.26001C131.337 6.26001 129.188 8.42417 129.188 11.0841C129.188 13.744 131.337 15.9082 133.977 15.9082C136.618 15.9082 138.766 13.744 138.766 11.0841C138.766 8.42417 136.618 6.26001 133.977 6.26001ZM133.977 17.1806C130.64 17.1806 127.925 14.446 127.925 11.0842C127.925 7.72258 130.64 4.98779 133.977 4.98779C137.314 4.98779 140.03 7.72258 140.03 11.0842C140.03 14.446 137.314 17.1806 133.977 17.1806Z" fill="black"/>
<path fill-rule="evenodd" clip-rule="evenodd" d="M89.5472 15.9435L84.7436 4.98779H83.3574L88.7035 17.1806H90.3911L95.7372 4.98779H94.3508L89.5472 15.9435Z" fill="black"/>
<path fill-rule="evenodd" clip-rule="evenodd" d="M58.8727 14.651C56.9283 14.651 55.3465 13.067 55.3465 11.12C55.3465 9.17302 56.9283 7.58902 58.8727 7.58902C60.8168 7.58902 62.3988 9.17302 62.3988 11.1198V11.1202C62.3988 13.067 60.8168 14.651 58.8727 14.651ZM62.3988 0V5.05935V6.19876C61.405 5.48286 60.1878 5.05935 58.8727 5.05935C55.5353 5.05935 52.8203 7.77812 52.8203 11.12C52.8203 14.4622 55.5353 17.1807 58.8727 17.1807C60.1878 17.1807 61.405 16.7572 62.3988 16.0413V17.1807H64.925V7.58903V5.05935V0H62.3988Z" fill="black"/>
<path fill-rule="evenodd" clip-rule="evenodd" d="M72.0782 14.6362C70.1339 14.6362 68.5521 13.0429 68.5521 11.0844C68.5521 9.12596 70.1339 7.53263 72.0782 7.53263C74.0225 7.53263 75.6044 9.12596 75.6044 11.0844C75.6044 13.0429 74.0225 14.6362 72.0782 14.6362ZM75.6044 4.98779V6.13391C74.6105 5.4138 73.3931 4.98779 72.0782 4.98779C68.7409 4.98779 66.0259 7.72258 66.0259 11.0842C66.0259 14.446 68.7409 17.1806 72.0782 17.1806C73.3931 17.1806 74.6105 16.7546 75.6044 16.0344V17.1806H78.1306V4.98779H75.6044Z" fill="black"/>
<path fill-rule="evenodd" clip-rule="evenodd" d="M21.751 13.4655C21.0849 14.1263 20.1993 14.4901 19.2574 14.4901C18.3156 14.4901 17.4301 14.1263 16.7641 13.4657C16.098 12.8048 15.7313 11.9264 15.7313 10.9921C15.7313 10.0579 16.098 9.17959 16.7643 8.51862C17.4299 7.85787 18.3154 7.49408 19.2574 7.49408C20.1995 7.49408 21.0849 7.85787 21.751 8.51862C22.4166 9.17917 22.7834 10.0573 22.7836 10.9914V10.9927C22.7834 11.927 22.4166 12.8052 21.751 13.4655ZM25.3098 10.9929V10.9918V10.9908V4.98779H22.7836V6.11216C21.7624 5.3827 20.5407 4.98779 19.2574 4.98779C17.6405 4.98779 16.1207 5.61221 14.978 6.7464C13.8347 7.88058 13.2051 9.38837 13.2051 10.9918C13.2051 12.5955 13.8347 14.1032 14.978 15.2372C16.1212 16.3714 17.6409 16.9958 19.2574 16.9958C20.5405 16.9958 21.7622 16.6011 22.7836 15.8712V16.9958C22.7836 17.9304 22.4169 18.8087 21.751 19.4693C21.0849 20.13 20.1993 20.4938 19.2574 20.4938C18.3156 20.4938 17.4301 20.13 16.7641 19.4695L14.978 21.2412C16.1212 22.3754 17.6409 22.9998 19.2574 22.9998C20.874 22.9998 22.3937 22.3754 23.537 21.2412C24.6803 20.1075 25.3098 18.5997 25.3098 16.9958V10.9929Z" fill="black"/>
<path fill-rule="evenodd" clip-rule="evenodd" d="M116.123 12.2537C116.031 11.8754 115.977 11.4846 115.977 11.0844C115.977 9.79582 116.473 8.58439 117.374 7.67322C118.274 6.76226 119.472 6.26034 120.746 6.26034C122.019 6.26034 123.217 6.76226 124.117 7.67322C124.432 7.99193 124.694 8.34902 124.906 8.73155L116.123 12.2537ZM124.117 14.4954C123.217 15.4066 122.019 15.9083 120.746 15.9083C119.472 15.9083 118.274 15.4066 117.374 14.4954C117.059 14.1767 116.797 13.8198 116.585 13.4371L125.368 9.91494V9.91516L126.549 9.44123C126.275 8.44227 125.751 7.52665 125.006 6.77345C123.868 5.62203 122.355 4.98779 120.746 4.98779C119.136 4.98779 117.623 5.62203 116.485 6.77345C115.346 7.92487 114.72 9.45586 114.72 11.0842C114.72 12.7127 115.346 14.2437 116.485 15.3949C117.623 16.5465 119.136 17.1806 120.746 17.1806C122.355 17.1806 123.868 16.5465 125.006 15.3949C125.559 14.8357 125.994 14.1839 126.298 13.4576L125.14 12.9619C124.899 13.5365 124.555 14.0522 124.117 14.4954Z" fill="black"/>
</svg>
