<?xml version="1.0" encoding="utf-8"?><svg viewBox="0 0 26 33" xmlns="http://www.w3.org/2000/svg" xmlns:xlink="http://www.w3.org/1999/xlink"><style>:root>svg{display:none}:root>svg:target{display:block}</style><svg viewBox="0 0 20 21" id="arrow-down" xmlns="http://www.w3.org/2000/svg"><path d="M9.307 13.711L3.29 7.677a.984.984 0 010-1.39.978.978 0 011.385 0L10 11.627l5.325-5.34a.978.978 0 011.386 0 .985.985 0 010 1.39l-6.018 6.034a.975.975 0 01-1.386 0z"/></svg><svg viewBox="0 0 16 12" id="arrow-right" xmlns="http://www.w3.org/2000/svg"><path d="M9.634 1.935l3.364 3.364H1.494a.617.617 0 00-.619.62c0 .341.272.626.619.626h11.503L9.634 9.902l-.002.002a.632.632 0 00.001.88.62.62 0 00.884 0L14.94 6.36a.61.61 0 000-.877L10.517 1.06a.62.62 0 00-.884 0 .623.623 0 000 .875z"/></svg><svg viewBox="0 0 20 20" fill="none" id="dropdown-arrow" xmlns="http://www.w3.org/2000/svg"><path fill-rule="evenodd" clip-rule="evenodd" d="M10 12l3-4H7l3 4z" fill="#fff"/></svg><svg fill="none" viewBox="0 0 24 24" id="facebook" xmlns="http://www.w3.org/2000/svg"><path fill-rule="evenodd" clip-rule="evenodd" d="M23.83 11.915c0 6.58-5.335 11.914-11.915 11.914C5.335 23.83 0 18.495 0 11.915S5.334 0 11.915 0c6.58 0 11.914 5.334 11.914 11.915zm-11.046.466h2.126l.281-2.735h-2.407v-1.61c0-.605.4-.747.683-.747H15.2V4.632l-2.386-.01c-2.649 0-3.25 1.984-3.25 3.25v1.772H8.03v2.737h1.532v7.789h3.22v-7.79z" fill="#fff"/></svg><svg fill="none" viewBox="0 0 15 15" id="header-close" xmlns="http://www.w3.org/2000/svg"><path fill-rule="evenodd" clip-rule="evenodd" d="M7.5 6.275L13.522.254a.866.866 0 011.224 1.224L8.724 7.5l6.022 6.022a.866.866 0 11-1.224 1.224L7.5 8.725l-6.022 6.021a.866.866 0 01-1.224-1.224L6.275 7.5.254 1.478A.866.866 0 111.478.254L7.5 6.275z" fill="#030303"/></svg><svg fill="none" viewBox="0 0 21 14" id="header-menu" xmlns="http://www.w3.org/2000/svg"><path fill="#030303" d="M0 0h21v2H0zM0 6h13v2H0zM0 12h21v2H0z"/></svg><svg fill="none" viewBox="0 0 24 24" id="instagram" xmlns="http://www.w3.org/2000/svg"><path fill-rule="evenodd" clip-rule="evenodd" d="M15.535 6.368H8.4a2.067 2.067 0 00-2.065 2.065v7.134c0 1.139.926 2.065 2.065 2.065h7.134a2.068 2.068 0 002.065-2.065V8.433a2.067 2.067 0 00-2.065-2.065zm-3.567 9.34A3.712 3.712 0 018.26 12a3.712 3.712 0 013.708-3.708A3.712 3.712 0 0115.676 12a3.713 3.713 0 01-3.708 3.708zm2.95-7.526a.878.878 0 001.755 0 .878.878 0 00-1.755 0z" fill="#fff"/><path d="M11.968 9.859c-1.18 0-2.142.96-2.142 2.14 0 1.181.961 2.142 2.142 2.142 1.18 0 2.14-.96 2.14-2.141 0-1.18-.96-2.141-2.14-2.141z" fill="#fff"/><path fill-rule="evenodd" clip-rule="evenodd" d="M0 11.968C0 5.358 5.358 0 11.968 0s11.968 5.358 11.968 11.968-5.359 11.968-11.968 11.968C5.358 23.936 0 18.577 0 11.968zm15.535 7.231a3.636 3.636 0 003.632-3.632V8.433a3.636 3.636 0 00-3.632-3.632H8.4a3.636 3.636 0 00-3.632 3.632v7.134A3.636 3.636 0 008.4 19.2h7.134z" fill="#fff"/></svg><svg fill="none" viewBox="0 0 24 24" id="linkedin" xmlns="http://www.w3.org/2000/svg"><path fill-rule="evenodd" clip-rule="evenodd" d="M0 11.97C0 5.358 5.359 0 11.97 0c6.61 0 11.969 5.359 11.969 11.97 0 6.61-5.36 11.969-11.97 11.969S0 18.579 0 11.969zm6.675 5.482h2.48v-7.98h-2.48v7.98zm1.24-9.07a1.438 1.438 0 110-2.877 1.438 1.438 0 010 2.877zm8.05 9.07h2.478v-4.377c0-2.148-.463-3.8-2.974-3.8-1.207 0-2.015.66-2.347 1.288h-.033v-1.09H10.71v7.978h2.478v-3.947c0-1.04.198-2.048 1.488-2.048 1.272 0 1.29 1.19 1.29 2.115v3.88z" fill="#fff"/></svg><svg fill="none" viewBox="0 0 13 15" id="load-more" xmlns="http://www.w3.org/2000/svg"><path fill-rule="evenodd" clip-rule="evenodd" d="M12.256 8.633H10.34c-.163 0-.303.219-.316.381-.146 1.869-1.713 3.392-3.619 3.392-2.118 0-4.046-1.67-3.843-3.828.174-1.844 1.472-3.07 3.382-3.12v2.477l5.002-3.748c.118-.123.047-.321-.07-.445L5.944 0v2.653C2.762 2.733.13 5.293.005 8.584-.129 12.1 2.805 15 6.291 15c3.296 0 6.055-2.69 6.226-5.945.009-.179-.083-.422-.262-.422z" fill="#E4281A"/></svg><svg fill="none" viewBox="0 0 14 16" id="play" xmlns="http://www.w3.org/2000/svg"><path d="M12.696 6.848L2.293.582c-.308-.175-.69-.146-.978-.146C.161.436.167 1.288.167 1.504V14.31c0 .182-.006 1.067 1.148 1.067.288 0 .67.03.978-.146l10.403-6.266c.854-.485.706-1.059.706-1.059s.148-.573-.706-1.059z" fill="#fff"/></svg><svg viewBox="0 0 26 26" fill="none" id="shield" xmlns="http://www.w3.org/2000/svg"><path opacity=".3" fill-rule="evenodd" clip-rule="evenodd" d="M4.476 4.367l7.965-1.494a2 2 0 01.737 0l7.965 1.494v8.486a11 11 0 01-5.17 9.328l-2.633 1.646a1 1 0 01-1.06 0l-2.634-1.646a11 11 0 01-5.17-9.328V4.367z" fill="#fff"/><path fill-rule="evenodd" clip-rule="evenodd" d="M11.95 15.565c-.25 0-.499-.1-.699-.3l-1.996-1.997a.963.963 0 010-1.397c.4-.4 1.048-.4 1.397 0l1.298 1.298 3.294-3.295a.966.966 0 011.398 0c.4.4.4.999 0 1.398l-3.993 3.993c-.2.2-.45.3-.699.3z" fill="#fff"/></svg><svg viewBox="0 0 19 33" id="slider-left-arrow" xmlns="http://www.w3.org/2000/svg"><path d="M17.458 31.193a1.05 1.05 0 000-1.499l-13.39-13.18L17.459 3.31a1.05 1.05 0 000-1.499 1.086 1.086 0 00-1.52 0L1.815 15.74c-.21.206-.314.464-.314.749 0 .258.105.542.314.75l14.123 13.928c.42.44 1.1.44 1.52.026z"/><path fill-rule="evenodd" clip-rule="evenodd" d="M18.16 1.098a2.05 2.05 0 010 2.923L5.493 16.514 18.16 28.982a2.051 2.051 0 010 2.923c-.808.797-2.122.8-2.932-.035L1.113 17.95a2.071 2.071 0 01-.612-1.461c0-.55.21-1.065.612-1.462L15.236 1.098a2.086 2.086 0 012.924 0zm-1.405 1.499a.05.05 0 000-.075.079.079 0 00-.057-.022.08.08 0 00-.058.022L2.517 16.452a.105.105 0 00-.013.014l-.001.002v.003a.093.093 0 00-.002.018c0-.002 0-.002 0 0v.003a.086.086 0 00.016.034l14.134 13.94.01.01c.01.012.02.017.025.02a.062.062 0 00.069-.014.05.05 0 000-.076L2.644 16.516 16.755 2.596z"/></svg><svg viewBox="0 0 19 33" id="slider-right-arrow" xmlns="http://www.w3.org/2000/svg"><path d="M1.543 1.807a1.05 1.05 0 000 1.499l13.389 13.18L1.542 29.69a1.05 1.05 0 000 1.499c.42.413 1.101.413 1.52 0l14.123-13.93c.21-.206.315-.465.315-.749 0-.258-.105-.542-.315-.75L3.063 1.834c-.42-.44-1.1-.44-1.52-.026z"/><path fill-rule="evenodd" clip-rule="evenodd" d="M.84 31.902a2.05 2.05 0 010-2.923l12.667-12.493L.841 4.018a2.051 2.051 0 010-2.923 2.063 2.063 0 012.933.035l14.113 13.92c.412.405.613.951.613 1.461 0 .55-.21 1.065-.613 1.462L3.765 31.902a2.086 2.086 0 01-2.924 0zm1.405-1.5a.05.05 0 000 .076.08.08 0 00.058.022.08.08 0 00.057-.022l14.123-13.93a.113.113 0 00.013-.014l.002-.003v-.002c0-.003.002-.008.002-.018 0 .002 0 .002 0 0v-.003a.09.09 0 00-.006-.015.06.06 0 00-.01-.02L2.35 2.535l-.01-.011a.075.075 0 00-.026-.018.062.062 0 00-.069.014.05.05 0 000 .075l14.112 13.89L2.245 30.404z"/></svg><svg fill="none" viewBox="0 0 24 24" id="twitter" xmlns="http://www.w3.org/2000/svg"><path fill-rule="evenodd" clip-rule="evenodd" d="M23.83 11.915c0 6.58-5.335 11.914-11.915 11.914C5.335 23.83 0 18.495 0 11.915S5.334 0 11.915 0c6.58 0 11.914 5.334 11.914 11.915zm-5.584-2.931a5.681 5.681 0 001.635-.448 5.774 5.774 0 01-1.421 1.474c.006.122.008.245.008.368 0 3.764-2.864 8.103-8.103 8.103A8.055 8.055 0 016 17.201a5.714 5.714 0 004.216-1.18 2.851 2.851 0 01-2.66-1.976 2.854 2.854 0 001.286-.05 2.85 2.85 0 01-2.284-2.828c.383.214.823.342 1.29.357a2.848 2.848 0 01-.882-3.803 8.084 8.084 0 005.87 2.976A2.848 2.848 0 0117.69 8.1a5.702 5.702 0 001.809-.69 2.856 2.856 0 01-1.253 1.575z" fill="#fff"/></svg><svg fill="none" viewBox="0 0 24 24" id="vimeo" xmlns="http://www.w3.org/2000/svg"><path fill-rule="evenodd" clip-rule="evenodd" d="M0 11.97C0 5.358 5.36 0 11.97 0s11.969 5.359 11.969 11.97c0 6.61-5.36 11.969-11.97 11.969S0 18.579 0 11.969zm15.74 3.133c1.776-2.285 2.695-4.086 2.755-5.4.08-1.76-.574-2.66-1.962-2.7-1.871-.06-3.14.996-3.803 3.17a2.516 2.516 0 011-.222c.686 0 .99.387.909 1.158-.041.466-.344 1.146-.91 2.04-.565.891-.99 1.339-1.273 1.339-.363 0-.697-.688-1-2.065-.101-.404-.283-1.436-.545-3.096-.243-1.537-.89-2.256-1.94-2.155-.445.04-1.112.445-2.001 1.212-.647.587-1.304 1.173-1.97 1.758l.635.819c.605-.424.959-.636 1.06-.636.463 0 .897.727 1.3 2.18l.645 2.367.445 1.63c.544 1.454 1.21 2.181 1.996 2.181 1.272 0 2.825-1.193 4.66-3.58z" fill="#fff"/></svg><svg fill="none" viewBox="0 0 24 24" id="youtube" xmlns="http://www.w3.org/2000/svg"><path d="M10.16 14.145l4.457-2.31-4.457-2.326v4.636z" fill="#fff"/><path fill-rule="evenodd" clip-rule="evenodd" d="M0 11.97C0 5.358 5.36 0 11.97 0s11.969 5.359 11.969 11.97c0 6.61-5.36 11.969-11.97 11.969S0 18.579 0 11.969zm17.218 4.69a1.771 1.771 0 001.516-1.377c.244-1.061.245-2.22.245-3.314v-.026c0-1.086 0-2.234-.242-3.288a1.77 1.77 0 00-1.516-1.377c-1.738-.194-3.498-.195-5.25-.194-1.751-.001-3.51 0-5.25.194a1.77 1.77 0 00-1.514 1.377c-.244 1.062-.247 2.221-.247 3.314s0 2.252.244 3.314A1.77 1.77 0 006.72 16.66c1.738.195 3.498.196 5.25.195 1.752.001 3.511 0 5.25-.195z" fill="#fff"/></svg></svg>